<?xml version="1.0" standalone="no"?>
<!DOCTYPE svg PUBLIC "-//W3C//DTD SVG 20010904//EN"
 "http://www.w3.org/TR/2001/REC-SVG-20010904/DTD/svg10.dtd">
<svg version="1.0" xmlns="http://www.w3.org/2000/svg"
 width="500.000000pt" height="500.000000pt" viewBox="0 0 500.000000 500.000000"
 preserveAspectRatio="xMidYMid meet">
<metadata>
Created by potrace 1.14, written by Peter Selinger 2001-2017
</metadata>
<g transform="translate(0.000000,500.000000) scale(0.100000,-0.100000)"
fill="#000000" stroke="none">
<path d="M50 4123 c-8 -3 -23 -14 -32 -24 -17 -17 -18 -106 -15 -1604 l2
-1587 24 -19 c22 -18 44 -19 410 -19 212 0 395 3 406 6 44 11 46 32 47 320 0
151 3 274 7 274 4 0 19 -24 34 -52 26 -53 55 -105 147 -268 26 -47 67 -121 90
-165 64 -119 57 -115 231 -115 160 0 189 7 210 48 8 15 67 123 133 242 65 118
130 236 144 262 14 26 28 45 31 43 2 -3 5 -129 5 -279 l1 -274 24 -21 c24 -21
32 -21 424 -21 418 1 410 0 434 45 14 26 15 3128 2 3164 -20 51 -17 50 -422
51 -320 0 -383 -2 -407 -15 -17 -9 -30 -19 -30 -24 0 -5 -17 -40 -39 -78 -137
-243 -231 -416 -231 -425 0 -4 -5 -8 -12 -8 -6 0 -8 -3 -5 -6 4 -4 -2 -19 -12
-33 -10 -14 -34 -55 -53 -91 -19 -36 -61 -112 -93 -170 -32 -58 -65 -117 -72
-132 -21 -41 -27 -41 -49 0 -10 20 -44 82 -76 139 -75 135 -115 207 -148 268
-15 28 -36 66 -47 85 -11 19 -39 71 -63 115 -23 44 -46 85 -50 90 -4 6 -24 42
-45 80 -66 123 -88 159 -108 182 -20 22 -20 22 -401 22 -209 0 -388 -3 -396
-6z"/>
<path d="M2895 4106 l-25 -24 0 -415 1 -416 26 -21 c24 -19 39 -20 292 -20
l266 0 -1 -1132 c0 -658 4 -1145 9 -1161 5 -15 17 -32 27 -37 12 -6 188 -10
449 -10 418 0 432 1 451 20 11 11 21 30 21 43 1 12 3 524 4 1137 1 613 3 1121
4 1128 1 9 61 12 266 12 l266 0 24 25 25 24 0 408 c0 387 -1 409 -20 433 l-19
25 -1020 2 -1020 3 -26 -24z"/>
</g>
</svg>
